<svg width="16" height="20" viewBox="0 0 16 20" fill="none" xmlns="http://www.w3.org/2000/svg">
<path d="M15.4988 6.71167C14.188 7.5217 13.3783 8.91032 13.3783 10.4532C13.3783 12.189 14.4193 13.7705 16 14.4262C15.6916 15.4291 15.2289 16.3549 14.6506 17.2035C13.8024 18.3992 12.9157 19.6336 11.6048 19.6336C10.294 19.6336 9.90843 18.8621 8.36627 18.8621C6.86265 18.8621 6.32289 19.6721 5.08916 19.6721C3.85542 19.6721 3.00723 18.5535 2.04337 17.1649C0.771084 15.2363 0.0385542 12.999 0 10.6461C0 6.82739 2.46747 4.78303 4.93494 4.78303C6.24578 4.78303 7.3253 5.63163 8.13494 5.63163C8.90602 5.63163 10.1398 4.74446 11.6048 4.74446C13.147 4.70588 14.612 5.43877 15.4988 6.71167ZM10.9108 3.1244C11.5663 2.35294 11.9133 1.38862 11.9518 0.385728C11.9518 0.27001 11.9518 0.115718 11.9133 0C10.7952 0.115718 9.75422 0.655738 9.02169 1.50434C8.36626 2.23722 7.98072 3.16297 7.94217 4.16586C7.94217 4.28158 7.94217 4.3973 7.98072 4.51302C8.05783 4.51302 8.17349 4.55159 8.2506 4.55159C9.29157 4.47445 10.2554 3.93443 10.9108 3.1244Z" fill="white"/>
</svg>
