<svg width="16" height="16" viewBox="0 0 16 16" fill="none" xmlns="http://www.w3.org/2000/svg">
<path d="M5.33332 8.00002L7.33332 10L10.6667 6.00002M2.66666 11.2V4.80002C2.66666 4.05335 2.66666 3.68002 2.81199 3.39469C2.93999 3.14335 3.14332 2.94002 3.39466 2.81202C3.67999 2.66669 4.05332 2.66669 4.79999 2.66669H11.2C11.9467 2.66669 12.32 2.66669 12.6047 2.81202C12.856 2.94002 13.06 3.14335 13.188 3.39469C13.3333 3.67935 13.3333 4.05269 13.3333 4.79802V11.2027C13.3333 11.948 13.3333 12.3207 13.188 12.6054C13.06 12.8563 12.8558 13.0603 12.6047 13.188C12.32 13.3334 11.9473 13.3334 11.202 13.3334H4.79799C4.05266 13.3334 3.67932 13.3334 3.39466 13.188C3.14378 13.0602 2.93982 12.8562 2.81199 12.6054C2.66666 12.32 2.66666 11.9467 2.66666 11.2Z" stroke="white" stroke-width="2" stroke-linecap="round" stroke-linejoin="round"/>
</svg>
